<svg width="12" height="12" viewBox="0 0 12 12" fill="none" xmlns="http://www.w3.org/2000/svg">
<path d="M4.96763 7.74995C4.923 7.57692 4.83281 7.41901 4.70645 7.29265C4.58009 7.16629 4.42218 7.0761 4.24915 7.03147L1.18173 6.24049C1.1294 6.22563 1.08334 6.19411 1.05054 6.15071C1.01775 6.10731 1 6.05439 1 5.99999C1 5.94559 1.01775 5.89268 1.05054 5.84927C1.08334 5.80587 1.1294 5.77435 1.18173 5.7595L4.24915 4.96802C4.42212 4.92342 4.57999 4.83331 4.70634 4.70705C4.83269 4.58078 4.92292 4.42298 4.96763 4.25004L5.75861 1.18262C5.77332 1.13008 5.8048 1.08379 5.84827 1.05082C5.89174 1.01785 5.9448 1 5.99936 1C6.05391 1 6.10697 1.01785 6.15044 1.05082C6.19391 1.08379 6.2254 1.13008 6.2401 1.18262L7.03058 4.25004C7.07522 4.42307 7.16541 4.58098 7.29176 4.70734C7.41812 4.83369 7.57603 4.92388 7.74906 4.96852L10.8165 5.759C10.8692 5.77355 10.9157 5.805 10.9489 5.84854C10.982 5.89207 11 5.94528 11 5.99999C11 6.05471 10.982 6.10792 10.9489 6.15145C10.9157 6.19498 10.8692 6.22644 10.8165 6.24099L7.74906 7.03147C7.57603 7.0761 7.41812 7.16629 7.29176 7.29265C7.16541 7.41901 7.07522 7.57692 7.03058 7.74995L6.2396 10.8174C6.2249 10.8699 6.19341 10.9162 6.14994 10.9492C6.10648 10.9821 6.05341 11 5.99886 11C5.9443 11 5.89124 10.9821 5.84777 10.9492C5.8043 10.9162 5.77282 10.8699 5.75811 10.8174L4.96763 7.74995Z" fill="white" stroke="white" stroke-width="0.499987" stroke-linecap="round" stroke-linejoin="round"/>
</svg>
