<svg width="219" height="242" viewBox="0 0 219 242" fill="none" xmlns="http://www.w3.org/2000/svg">
<g filter="url(#filter0_n_555_27)">
<path d="M201.056 132.433L181.303 121.032L201.056 109.631C218.234 99.7115 224.089 77.7466 214.181 60.5483C204.273 43.35 182.333 37.4884 165.154 47.408L145.402 58.8092V35.9425C145.402 16.1033 129.317 0 109.5 0C89.6833 0 73.5983 16.1033 73.5983 35.9425V58.8092L53.846 47.408C36.6672 37.4884 14.7273 43.35 4.81895 60.5483C-5.0894 77.7466 0.765534 99.7115 17.9443 109.631L37.6967 121.032L17.9443 132.433C0.765534 142.353 -5.0894 164.318 4.81895 181.516C14.7273 198.714 36.6672 204.576 53.846 194.656L73.5983 183.255V206.058C73.5983 225.897 89.6833 242 109.5 242C129.317 242 145.402 225.897 145.402 206.058V183.191L165.154 194.592C182.333 204.512 204.273 198.65 214.181 181.452C224.089 164.318 218.234 142.353 201.056 132.433Z" fill="url(#paint0_radial_555_27)"/>
</g>
<defs>
<filter id="filter0_n_555_27" x="0" y="0" width="219" height="242" filterUnits="userSpaceOnUse" color-interpolation-filters="sRGB">
<feFlood flood-opacity="0" result="BackgroundImageFix"/>
<feBlend mode="normal" in="SourceGraphic" in2="BackgroundImageFix" result="shape"/>
<feTurbulence type="fractalNoise" baseFrequency="0.5 0.5" stitchTiles="stitch" numOctaves="3" result="noise" seed="697" />
<feColorMatrix in="noise" type="luminanceToAlpha" result="alphaNoise" />
<feComponentTransfer in="alphaNoise" result="coloredNoise1">
<feFuncA type="discrete" tableValues="1 1 1 1 1 1 1 1 1 1 1 1 1 1 1 1 1 1 1 1 1 1 1 1 1 1 1 1 1 1 1 1 1 1 1 1 1 1 1 1 1 1 1 1 1 1 1 1 1 1 1 0 0 0 0 0 0 0 0 0 0 0 0 0 0 0 0 0 0 0 0 0 0 0 0 0 0 0 0 0 0 0 0 0 0 0 0 0 0 0 0 0 0 0 0 0 0 0 0 0 "/>
</feComponentTransfer>
<feComposite operator="in" in2="shape" in="coloredNoise1" result="noise1Clipped" />
<feComponentTransfer in="alphaNoise" result="coloredNoise2">
<feFuncA type="discrete" tableValues="0 0 0 0 0 0 0 0 0 0 0 0 0 0 0 0 0 0 0 0 0 0 0 0 0 0 0 0 0 0 0 0 0 0 0 0 0 0 0 0 0 0 0 0 0 0 0 0 0 1 1 1 1 1 1 1 1 1 1 1 1 1 1 1 1 1 1 1 1 1 1 1 1 1 1 1 1 1 1 1 1 1 1 1 1 1 1 1 1 1 1 1 1 1 1 1 1 1 1 1 "/>
</feComponentTransfer>
<feComposite operator="in" in2="shape" in="coloredNoise2" result="noise2Clipped" />
<feFlood flood-color="rgba(236, 92, 232, 0.13)" result="color1Flood" />
<feComposite operator="in" in2="noise1Clipped" in="color1Flood" result="color1" />
<feFlood flood-color="rgba(255, 83, 138, 0.08)" result="color2Flood" />
<feComposite operator="in" in2="noise2Clipped" in="color2Flood" result="color2" />
<feMerge result="effect1_noise_555_27">
<feMergeNode in="shape" />
<feMergeNode in="color1" />
<feMergeNode in="color2" />
</feMerge>
</filter>
<radialGradient id="paint0_radial_555_27" cx="0" cy="0" r="1" gradientUnits="userSpaceOnUse" gradientTransform="translate(109.5 121) rotate(42.4642) scale(118.45 107.325)">
<stop stop-color="#EC5CE8"/>
<stop offset="1" stop-color="#FF538A"/>
</radialGradient>
</defs>
</svg>
